<?xml version="1.0" encoding="UTF-8" standalone="no"?>
<svg
   xmlns:dc="http://purl.org/dc/elements/1.1/"
   xmlns:cc="http://creativecommons.org/ns#"
   xmlns:rdf="http://www.w3.org/1999/02/22-rdf-syntax-ns#"
   xmlns:svg="http://www.w3.org/2000/svg"
   xmlns="http://www.w3.org/2000/svg"
   xmlns:sodipodi="http://sodipodi.sourceforge.net/DTD/sodipodi-0.dtd"
   xmlns:inkscape="http://www.inkscape.org/namespaces/inkscape"
   version="1.1"
   id="svg1165"
   xml:space="preserve"
   width="240.83463"
   height="256"
   viewBox="0 0 240.83462 256"
   sodipodi:docname="logo.svg"
   inkscape:version="1.0.2 (e86c870879, 2021-01-15)"><metadata
     id="metadata1171"><rdf:RDF><cc:Work
         rdf:about=""><dc:format>image/svg+xml</dc:format><dc:type
           rdf:resource="http://purl.org/dc/dcmitype/StillImage" /><dc:title></dc:title><dc:source>https://pixabay.com/vectors/owl-animal-wildlife-bird-wild-4080369/</dc:source><dc:creator><cc:Agent><dc:title>Image by Shaukat Kanbar from Pixabay </dc:title></cc:Agent></dc:creator><dc:rights><cc:Agent><dc:title>https://pixabay.com/service/license/</dc:title></cc:Agent></dc:rights></cc:Work></rdf:RDF></metadata><defs
     id="defs1169"><clipPath
       clipPathUnits="userSpaceOnUse"
       id="clipPath1183"><path
         d="M 0,2000 H 2000 V 0 H 0 Z"
         id="path1181" /></clipPath></defs><sodipodi:namedview
     pagecolor="#ffffff"
     bordercolor="#666666"
     borderopacity="1"
     objecttolerance="10"
     gridtolerance="10"
     guidetolerance="10"
     inkscape:pageopacity="0"
     inkscape:pageshadow="2"
     inkscape:window-width="1866"
     inkscape:window-height="1051"
     id="namedview1167"
     showgrid="false"
     fit-margin-top="0"
     fit-margin-left="0"
     fit-margin-right="0"
     fit-margin-bottom="0"
     inkscape:zoom="1.9615824"
     inkscape:cx="125.66535"
     inkscape:cy="99.337116"
     inkscape:window-x="54"
     inkscape:window-y="0"
     inkscape:window-maximized="1"
     inkscape:current-layer="g1173" /><g
     id="g1173"
     inkscape:groupmode="layer"
     inkscape:label="owl-4080369"
     transform="matrix(1.3333333,0,0,-1.3333333,-682.40265,1984.3461)"><g
       id="g1179"
       clip-path="url(#clipPath1183)"
       transform="matrix(0.19653407,0,0,0.19653407,411.21547,1195.7659)"><g
         id="g1185"
         transform="translate(1044.1064,1387.7607)"
         style="fill:#5dc9e2;fill-opacity:1"><path
           d="M 0,0 C 0,0 -48.864,110.204 -151.79,99.807 -254.716,89.411 0,0 0,0"
           style="fill:#5dc9e2;fill-opacity:1;fill-rule:nonzero;stroke:none"
           id="path1187" /></g><g
         id="g1189"
         transform="translate(987.9649,1371.1262)"
         style="fill:#5dc9e2;fill-opacity:1"><path
           d="M 0,0 C 0,0 38.166,110.204 118.558,99.807 198.949,89.411 0,0 0,0"
           style="fill:#5dc9e2;fill-opacity:1;fill-rule:nonzero;stroke:none"
           id="path1191" /></g><g
         id="g1193"
         transform="translate(769.637,800.3546)"
         style="fill:#5dc9e2;fill-opacity:1"><path
           d="m 0,0 -224.566,24.952 -33.269,-160.107 478.242,108.124 z"
           style="fill:#5dc9e2;fill-opacity:1;fill-rule:nonzero;stroke:none"
           id="path1195" /></g><g
         id="g1197"
         transform="translate(1430.8588,995.8101)"
         style="fill:#00addf;fill-opacity:1"><path
           d="m 0,0 c 0,-229.675 -186.188,-415.863 -415.863,-415.863 -229.674,0 -415.863,186.188 -415.863,415.863 0,229.675 186.189,415.863 415.863,415.863 C -186.188,415.863 0,229.675 0,0"
           style="fill:#00addf;fill-opacity:1;fill-rule:nonzero;stroke:none"
           id="path1199" /></g><g
         id="g1201"
         transform="translate(1009.6744,824.7866)"><path
           d="M 0,0 H -5.198 L -88.371,171.543 H 83.173 Z"
           style="fill:#ff8c00;fill-opacity:1;fill-rule:nonzero;stroke:none"
           id="path1203" /></g><g
         id="g1205"
         transform="translate(1341.8448,1042.5947)"><path
           d="m 0,0 c 0,-92.444 -74.941,-167.385 -167.385,-167.385 -92.444,0 -167.385,74.941 -167.385,167.385 0,92.444 74.941,167.385 167.385,167.385 C -74.941,167.385 0,92.444 0,0"
           style="fill:#ffffff;fill-opacity:1;fill-rule:nonzero;stroke:none"
           id="path1207" /></g><g
         id="g1209"
         transform="translate(1014.996,1042.5947)"><path
           d="m 0,0 c 0,-92.444 -74.941,-167.385 -167.385,-167.385 -92.444,0 -167.385,74.941 -167.385,167.385 0,92.444 74.941,167.385 167.385,167.385 C -74.941,167.385 0,92.444 0,0"
           style="fill:#ffffff;fill-opacity:1;fill-rule:nonzero;stroke:none"
           id="path1211" /></g><g
         id="g1213"
         transform="translate(1222.2843,1000)"><path
           d="m 0,0 c 0,-47.083 -38.169,-85.252 -85.252,-85.252 -47.083,0 -85.252,38.169 -85.252,85.252 0,47.083 38.169,85.252 85.252,85.252 C -38.169,85.252 0,47.083 0,0"
           style="fill:#000000;fill-opacity:1;fill-rule:nonzero;stroke:none"
           id="path1215" /></g><g
         id="g1217"
         transform="translate(962.3701,1000)"><path
           d="m 0,0 c 0,-47.083 -38.169,-85.252 -85.252,-85.252 -47.083,0 -85.252,38.169 -85.252,85.252 0,47.083 38.169,85.252 85.252,85.252 C -38.169,85.252 0,47.083 0,0"
           style="fill:#000000;fill-opacity:1;fill-rule:nonzero;stroke:none"
           id="path1219" /></g><g
         id="g1221"
         transform="translate(1132.8738,560.1938)"><path
           d="m 0,0 c 0,-26.987 -21.877,-48.864 -48.864,-48.864 -26.987,0 -48.864,21.877 -48.864,48.864 0,26.987 21.877,48.864 48.864,48.864 C -21.877,48.864 0,26.987 0,0"
           style="fill:#ff8c00;fill-opacity:1;fill-rule:nonzero;stroke:none"
           id="path1223" /></g><g
         id="g1225"
         transform="translate(979.0046,560.1938)"><path
           d="m 0,0 c 0,-26.987 -21.877,-48.864 -48.864,-48.864 -26.987,0 -48.864,21.877 -48.864,48.864 0,26.987 21.877,48.864 48.864,48.864 C -21.877,48.864 0,26.987 0,0"
           style="fill:#ff8c00;fill-opacity:1;fill-rule:nonzero;stroke:none"
           id="path1227" /></g></g></g></svg>
